HIERARCHY
ROOT hip
{
	OFFSET 0.000000 0.000000 0.000000
	CHANNELS 6 Xposition Yposition Zposition Xrotation Zrotation Yrotation 
	JOINT abdomen
	{
		OFFSET 0.000000 3.422050 0.000000
		CHANNELS 3 Xrotation Zrotation Yrotation 
		JOINT chest
		{
			OFFSET 0.000000 8.486693 -0.684411
			CHANNELS 3 Xrotation Zrotation Yrotation 
			JOINT neck
			{
				OFFSET 0.000000 10.266162 -0.273764
				CHANNELS 3 Xrotation Zrotation Yrotation 
				JOINT head
				{
					OFFSET 0.000000 3.148285 0.000000
					CHANNELS 3 Xrotation Zrotation Yrotation 
					End Site
					{
						OFFSET 0.000000 3.148289 0.000000
					}
				}
			}
			JOINT lCollar
			{
				OFFSET 3.422053 6.707223 -0.821293
				CHANNELS 3 Yrotation Zrotation Xrotation 
				JOINT lShldr
				{
					OFFSET 3.285171 0.000000 0.000000
					CHANNELS 3 Zrotation Yrotation Xrotation 
					JOINT lForeArm
					{
						OFFSET 10.129278 0.000000 0.000000
						CHANNELS 3 Yrotation Zrotation Xrotation 
						JOINT lHand
						{
							OFFSET 8.486692 0.000000 0.000000
							CHANNELS 3 Zrotation Yrotation Xrotation 
							End Site
							{
								OFFSET 4.106464 0.000000 0.000000
							}
						}
					}
				}
			}
			JOINT rCollar
			{
				OFFSET -3.558935 6.707223 -0.821293
				CHANNELS 3 Yrotation Zrotation Xrotation 
				JOINT rShldr
				{
					OFFSET -3.148289 0.000000 0.000000
					CHANNELS 3 Zrotation Yrotation Xrotation 
					JOINT rForeArm
					{
						OFFSET -10.266159 0.000000 0.000000
						CHANNELS 3 Yrotation Zrotation Xrotation 
						JOINT rHand
						{
							OFFSET -8.349810 0.000000 0.000000
							CHANNELS 3 Zrotation Yrotation Xrotation 
							End Site
							{
								OFFSET -4.106464 0.000000 0.000000
							}
						}
					}
				}
			}
		}
	}
	JOINT lThigh
	{
		OFFSET 5.338403 -1.642589 1.368821
		CHANNELS 3 Xrotation Zrotation Yrotation 
		JOINT lShin
		{
			OFFSET -2.053232 -20.121670 0.000000
			CHANNELS 3 Xrotation Zrotation Yrotation 
			JOINT lFoot
			{
				OFFSET 0.000000 -19.300380 -1.231939
				CHANNELS 3 Xrotation Yrotation Zrotation 
				End Site
				{
					OFFSET 0.000000 -2.463878 4.653993
				}
			}
		}
	}
	JOINT rThigh
	{
		OFFSET -5.338403 -1.642589 1.368821
		CHANNELS 3 Xrotation Zrotation Yrotation 
		JOINT rShin
		{
			OFFSET 2.053232 -20.121670 0.000000
			CHANNELS 3 Xrotation Zrotation Yrotation 
			JOINT rFoot
			{
				OFFSET 0.000000 -19.300380 -1.231939
				CHANNELS 3 Xrotation Yrotation Zrotation 
				End Site
				{
					OFFSET 0.000000 -2.463878 4.653993
				}
			}
		}
	}
}
MOTION
Frames: 18
Frame Time: 0.033264
0.000000 43.528500 0.000000 0.000000 0.000000 0.000000 0.000000 0.000000 0.000000 0.000000 0.000000 0.000000 0.000000 0.000000 0.000000 0.000000 0.000000 0.000000 0.000000 0.000000 0.000000 0.000000 0.000000 0.000000 0.000000 0.000000 0.000000 0.000000 0.000000 0.000000 0.000000 0.000000 0.000000 0.000000 0.000000 0.000000 0.000000 0.000000 0.000000 0.000000 0.000000 0.000000 0.000000 0.000000 0.000000 0.000000 0.000000 0.000000 0.000000 0.000000 0.000000 0.000000 0.000000 0.000000 0.000000 0.000000 0.000000 0.000000 0.000000 0.000000 
-0.465591 5.101677 0.946182 -85.000473 0.000000 0.000000 1.074033 -0.862121 -0.744283 -16.327400 3.673159 -1.826143 -1.001665 20.997570 -0.002459 -5.002944 10.999443 -0.001977 -18.156353 -26.308271 -4.089914 -52.596390 -16.066740 -7.169312 -22.365343 3.910712 6.123739 -50.472210 0.301142 9.428136 -7.773170 20.771692 -11.731030 58.506466 11.876664 -4.454712 82.915260 31.934038 -11.565499 27.653685 -0.783715 0.352752 -14.909074 10.221538 3.158747 35.149063 -10.990878 16.769199 26.242704 -9.031049 10.069441 -13.021538 -8.756052 -0.454940 29.413992 10.204136 -17.669676 25.550079 7.328567 -1.176967 
-0.465591 5.169762 0.946182 -85.334496 0.000000 0.000000 0.519051 -0.863529 -0.746455 -14.783976 3.669736 -1.825383 -0.660805 20.819078 0.119422 -4.771012 10.807989 0.042808 -18.382214 -26.040783 -4.558765 -52.596390 -16.066740 -7.169312 -22.365343 3.910712 6.123739 -50.472210 0.301142 9.428136 -7.542705 20.705957 -12.320423 58.506466 11.876664 -4.454712 82.915260 31.934040 -11.565501 27.653685 -0.783715 0.352752 -14.602158 9.733935 1.982481 35.149063 -10.990878 16.769199 26.159872 -8.035669 9.173932 -12.721951 -8.212484 1.058433 29.413992 10.204136 -17.669676 25.502157 5.999561 -0.155694 
-0.465591 5.237846 0.946182 -85.668579 0.000000 0.000000 -0.036140 -0.864958 -0.748614 -13.236006 3.666286 -1.824714 -0.320698 20.639879 0.240041 -4.539355 10.616342 0.086779 -18.605190 -25.771563 -5.025519 -52.596390 -16.066740 -7.169312 -22.365343 3.910712 6.123740 -50.472214 0.301142 9.428136 -7.312990 20.637987 -12.909491 58.506466 11.876665 -4.454712 82.915260 31.934038 -11.565499 27.653687 -0.783715 0.352752 -14.284870 9.251555 0.802574 35.149063 -10.990878 16.769199 26.092793 -7.036952 8.279984 -12.407263 -7.675085 2.577951 29.413992 10.204136 -17.669676 25.478075 4.665296 0.865789 
-0.465591 5.305931 0.946182 -86.002686 0.000000 0.000000 -0.591514 -0.866408 -0.750760 -11.684031 3.662807 -1.824137 0.018653 20.459993 0.359398 -4.307969 10.424498 0.129939 -18.825283 -25.500654 -5.490177 -52.596390 -16.066742 -7.169312 -22.365343 3.910712 6.123740 -50.472210 0.301142 9.428136 -7.084062 20.567785 -13.498192 58.506466 11.876664 -4.454712 82.915260 31.934040 -11.565500 27.653685 -0.783715 0.352752 -13.957360 8.774784 -0.380807 35.149071 -10.990879 16.769199 26.041441 -6.035394 7.387287 -12.077675 -7.144533 4.103241 29.413992 10.204137 -17.669678 25.477888 3.326739 1.888158 
-0.465591 5.374016 0.946182 -86.336830 0.000000 0.000000 -1.147045 -0.867880 -0.752892 -10.128614 3.659308 -1.823654 0.357250 20.279423 0.477492 -4.076852 10.232471 0.172289 -19.042494 -25.228081 -5.952742 -52.596390 -16.066740 -7.169312 -22.365341 3.910712 6.123739 -50.472206 0.301142 9.428135 -6.855958 20.495367 -14.086479 58.506466 11.876663 -4.454712 82.915260 31.934038 -11.565499 27.653683 -0.783715 0.352752 -13.619790 8.304003 -1.567482 35.149059 -10.990878 16.769197 26.005802 -5.031513 6.495536 -11.733428 -6.621512 5.633906 29.413992 10.204135 -17.669674 25.501682 1.984881 2.912092 
-0.465591 5.442101 0.946182 -86.671021 0.000000 0.000000 -1.702706 -0.869373 -0.755010 -8.570316 3.655790 -1.823266 0.695091 20.098185 0.594322 -3.846002 10.040265 0.213829 -19.256832 -24.953886 -6.413220 -52.596386 -16.066738 -7.169311 -22.365343 3.910712 6.123739 -50.472210 0.301142 9.428136 -6.628715 20.420740 -14.674310 58.506466 11.876663 -4.454712 82.915260 31.934038 -11.565499 27.653685 -0.783715 0.352752 -13.272339 7.839583 -2.757261 35.149063 -10.990878 16.769199 25.985859 -4.025816 5.604422 -11.374803 -6.106694 7.169532 29.413992 10.204136 -17.669674 25.549582 0.640726 3.938279 
-0.465591 5.510185 0.946182 -87.005196 0.000000 0.000000 -2.258473 -0.870886 -0.757114 -7.009708 3.652258 -1.822974 1.032177 19.916292 0.709889 -3.615418 9.847885 0.254560 -19.468292 -24.678106 -6.871615 -52.596390 -16.066740 -7.169312 -22.365343 3.910712 6.123739 -50.472210 0.301142 9.428136 -6.402369 20.343922 -15.261644 58.506466 11.876664 -4.454712 82.915260 31.934038 -11.565499 27.653685 -0.783715 0.352752 -12.915198 7.381891 -3.949940 35.149063 -10.990878 16.769199 25.981604 -3.018824 4.713641 -11.002105 -5.600738 8.709675 29.413992 10.204136 -17.669674 25.621685 -0.704713 4.967406 
-0.465591 5.578270 0.946182 -87.339409 0.000000 0.000000 -2.814317 -0.872420 -0.759204 -5.447361 3.648714 -1.822777 1.368506 19.733751 0.824191 -3.385097 9.655342 0.294484 -19.676876 -24.400761 -7.327930 -52.596390 -16.066740 -7.169312 -22.365343 3.910712 6.123739 -50.472210 0.301142 9.428136 -6.176958 20.264921 -15.848436 58.506466 11.876664 -4.454712 82.915260 31.934038 -11.565499 27.653685 -0.783715 0.352752 -12.548581 6.931293 -5.145310 35.149063 -10.990878 16.769199 25.993031 -2.011053 3.822886 -10.615672 -5.104286 10.253868 29.413992 10.204137 -17.669678 25.718145 -2.050409 6.000171 
-0.465591 5.646355 0.946182 -87.673637 0.000000 0.000000 -3.370215 -0.873975 -0.761278 -3.883860 3.645164 -1.822678 1.704078 19.550573 0.937228 -3.155035 9.462632 0.333601 -19.882597 -24.121901 -7.782175 -52.596390 -16.066740 -7.169312 -22.365343 3.910712 6.123739 -50.472210 0.301142 9.428136 -5.952515 20.183756 -16.434650 58.506466 11.876665 -4.454712 82.915260 31.934040 -11.565498 27.653685 -0.783715 0.352752 -12.172695 6.488132 -6.343146 35.149063 -10.990878 16.769199 26.020138 -1.003026 2.931850 -10.215883 -4.617966 11.801626 29.413992 10.204137 -17.669680 25.839109 -3.395325 7.037268 
-0.465591 5.714439 0.946182 -88.007874 0.000000 0.000000 -3.926139 -0.875549 -0.763338 -2.319781 3.641612 -1.822675 2.038894 19.366776 1.049001 -2.925231 9.269768 0.371913 -20.085461 -23.841560 -8.234356 -52.596390 -16.066740 -7.169312 -22.365345 3.910712 6.123740 -50.472210 0.301142 9.428136 -5.729075 20.100439 -17.020241 58.506466 11.876665 -4.454712 82.915260 31.934038 -11.565499 27.653687 -0.783715 0.352752 -11.787779 6.052756 -7.543213 35.149063 -10.990879 16.769199 26.062931 0.004736 2.040227 -9.803140 -4.142384 13.352435 29.413992 10.204137 -17.669680 25.984745 -4.738419 8.079403 
-0.465591 5.782524 0.946182 -88.342110 0.000000 0.000000 -4.482062 -0.877143 -0.765382 -0.755707 3.638062 -1.822770 2.372954 19.182364 1.159509 -2.695683 9.076753 0.409420 -20.285461 -23.559761 -8.684476 -52.596386 -16.066738 -7.169313 -22.365341 3.910712 6.123739 -50.472206 0.301141 9.428136 -5.506674 20.014973 -17.605160 58.506458 11.876664 -4.454711 82.915253 31.934034 -11.565496 27.653683 -0.783715 0.352752 -11.394086 5.625495 -8.745270 35.149055 -10.990877 16.769197 26.121410 1.011710 1.147713 -9.377884 -3.678123 14.905771 29.413984 10.204135 -17.669676 26.155245 -6.078641 9.127280 
-0.465591 5.850609 0.946182 -88.676331 0.000000 0.000000 -5.037961 -0.878757 -0.767411 0.807776 3.634515 -1.822962 2.706258 18.997353 1.268752 -2.466388 8.883595 0.446124 -20.482611 -23.276548 -9.132545 -52.596390 -16.066740 -7.169312 -22.365343 3.910712 6.123739 -50.472210 0.301142 9.428136 -5.285344 19.927393 -18.189377 58.506466 11.876664 -4.454712 82.915260 31.934038 -11.565499 27.653681 -0.783715 0.352752 -10.991869 5.206672 -9.949059 35.149063 -10.990878 16.769199 26.195576 2.017371 0.254005 -8.940580 -3.225741 16.461077 29.413984 10.204135 -17.669676 26.350811 -7.414936 10.181607 
-0.465591 5.918694 0.946182 -89.010544 0.000000 0.000000 -5.593806 -0.880391 -0.769424 2.370091 3.630978 -1.823250 3.038807 18.811754 1.376732 -2.237344 8.690295 0.482025 -20.676920 -22.991957 -9.578573 -52.596390 -16.066740 -7.169312 -22.365343 3.910712 6.123739 -50.472210 0.301142 9.428136 -5.065121 19.837709 -18.772850 58.506466 11.876664 -4.454712 82.915260 31.934038 -11.565499 27.653685 -0.783715 0.352752 -10.581403 4.796593 -11.154318 35.149063 -10.990878 16.769199 26.285450 3.021200 -0.641203 -8.491724 -2.785767 18.017782 29.413992 10.204136 -17.669676 26.571667 -8.746246 11.243100 
-0.465591 5.986778 0.946182 -89.344765 0.000000 0.000000 -6.149574 -0.882044 -0.771421 3.930655 3.627454 -1.823635 3.370599 18.625574 1.483448 -2.008548 8.496868 0.517126 -20.868399 -22.706024 -10.022570 -52.596390 -16.066740 -7.169312 -22.365343 3.910712 6.123739 -50.472210 0.301142 9.428136 -4.846034 19.745924 -19.355528 58.506466 11.876664 -4.454712 82.915260 31.934038 -11.565499 27.653685 -0.783715 0.352752 -10.162974 4.395554 -12.360769 35.149063 -10.990878 16.769199 26.391031 4.022672 -1.538208 -8.031840 -2.358701 19.575296 29.413992 10.204136 -17.669676 26.818027 -10.071510 12.312463 
-0.465591 6.054863 0.946182 -89.678932 0.000000 0.000000 -6.705237 -0.883715 -0.773401 5.488900 3.623948 -1.824115 3.701637 18.438828 1.588901 -1.779999 8.303313 0.551426 -21.057037 -22.418768 -10.464535 -52.596390 -16.066740 -7.169314 -22.365343 3.910712 6.123739 -50.472210 0.301142 9.428136 -4.628119 19.652081 -19.937395 58.506466 11.876664 -4.454712 82.915260 31.934038 -11.565499 27.653687 -0.783715 0.352752 -9.736876 4.003835 -13.568130 35.149063 -10.990878 16.769199 26.512350 5.021270 -2.437313 -7.561478 -1.945009 21.133017 29.413992 10.204137 -17.669676 27.090162 -11.389678 13.390421 
-0.465591 6.122948 0.946182 -90.013077 0.000000 0.000000 -7.260769 -0.885406 -0.775364 7.044249 3.620462 -1.824689 4.031920 18.251528 1.693091 -1.551694 8.109637 0.584926 -21.242863 -22.130238 -10.904488 -52.596390 -16.066740 -7.169312 -22.365345 3.910712 6.123740 -50.472210 0.301141 9.428136 -4.411405 19.556170 -20.518389 58.506466 11.876665 -4.454712 82.915260 31.934038 -11.565499 27.653685 -0.783715 0.352752 -9.303421 3.621706 -14.776107 35.149063 -10.990879 16.769201 26.649399 6.016471 -3.338809 -7.081208 -1.545124 22.690310 29.413992 10.204137 -17.669676 27.388327 -12.699689 14.477682 
-0.465591 6.191032 0.946182 -90.347191 0.000000 0.000000 -7.816147 -0.887114 -0.777310 8.596142 3.617000 -1.825356 4.361452 18.063684 1.796019 -1.323629 7.915845 0.617629 -21.425875 -21.840469 -11.342437 -52.596390 -16.066740 -7.169312 -22.365341 3.910712 6.123739 -50.472210 0.301142 9.428136 -4.195925 19.458229 -21.098486 58.506458 11.876664 -4.454711 82.915245 31.934034 -11.565497 27.653681 -0.783715 0.352752 -8.862923 3.249418 -15.984404 35.149063 -10.990877 16.769197 26.802221 7.007765 -4.242994 -6.591626 -1.159444 24.246552 29.413988 10.204135 -17.669674 27.712770 -14.000488 15.574956 
